<svg width="14" height="12" viewBox="0 0 14 12" fill="none" xmlns="http://www.w3.org/2000/svg">
<path fill-rule="evenodd" clip-rule="evenodd" d="M5.52474 6.60913L1.09312 1.06958H4.50866L7.41396 4.70121L11.0096 1.06958H12.0134L7.86238 5.26197L12.5434 11.1131H9.1279L5.97335 7.16972L2.06893 11.1131H1.06519L5.52474 6.60913ZM4.08949 1.78697H2.49997L9.51914 10.3957H11.1087L4.08949 1.78697Z" fill="#1D9BF0"/>
<path d="M1.09312 1.06958V0.76958H0.46893L0.858854 1.25699L1.09312 1.06958ZM5.52474 6.60913L5.73792 6.82021L5.9259 6.63036L5.759 6.42173L5.52474 6.60913ZM4.50866 1.06958L4.74292 0.882172L4.65285 0.76958H4.50866V1.06958ZM7.41396 4.70121L7.1797 4.88862L7.39014 5.15166L7.62715 4.91228L7.41396 4.70121ZM11.0096 1.06958V0.76958H10.8845L10.7964 0.858507L11.0096 1.06958ZM12.0134 1.06958L12.2265 1.28066L12.7326 0.76958H12.0134V1.06958ZM7.86238 5.26197L7.6492 5.0509L7.46121 5.24076L7.62812 5.44938L7.86238 5.26197ZM12.5434 11.1131V11.4131H13.1677L12.7777 10.9256L12.5434 11.1131ZM9.1279 11.1131L8.89363 11.3005L8.98371 11.4131H9.1279V11.1131ZM5.97335 7.16972L6.20761 6.98231L5.99718 6.71926L5.76017 6.95864L5.97335 7.16972ZM2.06893 11.1131V11.4131H2.19407L2.28211 11.3241L2.06893 11.1131ZM1.06519 11.1131L0.852006 10.902L0.345962 11.4131H1.06519V11.1131ZM2.49997 1.78697V1.48697H1.86828L2.26746 1.97655L2.49997 1.78697ZM4.08949 1.78697L4.322 1.59739L4.23196 1.48697H4.08949V1.78697ZM9.51914 10.3957L9.28664 10.5852L9.37667 10.6957H9.51914V10.3957ZM11.1087 10.3957V10.6957H11.7404L11.3412 10.2061L11.1087 10.3957ZM0.858854 1.25699L5.29048 6.79654L5.759 6.42173L1.32738 0.882172L0.858854 1.25699ZM4.50866 0.76958H1.09312V1.36958H4.50866V0.76958ZM7.64822 4.5138L4.74292 0.882172L4.2744 1.25699L7.1797 4.88862L7.64822 4.5138ZM10.7964 0.858507L7.20077 4.49014L7.62715 4.91228L11.2228 1.28065L10.7964 0.858507ZM12.0134 0.76958H11.0096V1.36958H12.0134V0.76958ZM8.07556 5.47305L12.2265 1.28066L11.8002 0.858504L7.6492 5.0509L8.07556 5.47305ZM12.7777 10.9256L8.09664 5.07456L7.62812 5.44938L12.3092 11.3005L12.7777 10.9256ZM9.1279 11.4131H12.5434V10.8131H9.1279V11.4131ZM5.73909 7.35712L8.89363 11.3005L9.36216 10.9257L6.20761 6.98231L5.73909 7.35712ZM2.28211 11.3241L6.18653 7.38079L5.76017 6.95864L1.85575 10.902L2.28211 11.3241ZM1.06519 11.4131H2.06893V10.8131H1.06519V11.4131ZM5.31156 6.39805L0.852006 10.902L1.27837 11.3241L5.73792 6.82021L5.31156 6.39805ZM2.49997 2.08697H4.08949V1.48697H2.49997V2.08697ZM9.75165 10.2061L2.73248 1.59739L2.26746 1.97655L9.28664 10.5852L9.75165 10.2061ZM11.1087 10.0957H9.51914V10.6957H11.1087V10.0957ZM3.85698 1.97655L10.8762 10.5852L11.3412 10.2061L4.322 1.59739L3.85698 1.97655Z" fill="#1D9BF0"/>
</svg>
