<svg width="14" height="14" viewBox="0 0 14 14" fill="none" xmlns="http://www.w3.org/2000/svg">
<mask id="mask0_20_456" style="mask-type:luminance" maskUnits="userSpaceOnUse" x="0" y="0" width="14" height="14">
<path fill-rule="evenodd" clip-rule="evenodd" d="M13.2427 5.83801H7.1487V8.30738H10.6565C10.3295 9.87616 8.96205 10.7767 7.1487 10.7767C5.00836 10.7767 3.28419 9.09177 3.28419 7.00007C3.28419 4.90837 5.00836 3.22339 7.1487 3.22339C8.07024 3.22339 8.9026 3.54295 9.55659 4.06588L11.4591 2.20659C10.2998 1.21884 8.81342 0.608765 7.1487 0.608765C3.52201 0.608765 0.608765 3.4558 0.608765 7.00007C0.608765 10.5443 3.52201 13.3914 7.1487 13.3914C10.4187 13.3914 13.3914 11.0673 13.3914 7.00007C13.3914 6.6224 13.3319 6.21568 13.2427 5.83801Z" fill="white"/>
</mask>
<g mask="url(#mask0_20_456)">
<path d="M0.0142822 10.7767V3.22339L5.06787 7.00007L0.0142822 10.7767Z" fill="#FBBC05"/>
</g>
<mask id="mask1_20_456" style="mask-type:luminance" maskUnits="userSpaceOnUse" x="0" y="0" width="14" height="14">
<path fill-rule="evenodd" clip-rule="evenodd" d="M13.2427 5.83801H7.1487V8.30738H10.6565C10.3295 9.87616 8.96205 10.7767 7.1487 10.7767C5.00836 10.7767 3.28419 9.09177 3.28419 7.00007C3.28419 4.90837 5.00836 3.22339 7.1487 3.22339C8.07024 3.22339 8.9026 3.54295 9.55659 4.06588L11.4591 2.20659C10.2998 1.21884 8.81342 0.608765 7.1487 0.608765C3.52201 0.608765 0.608765 3.4558 0.608765 7.00007C0.608765 10.5443 3.52201 13.3914 7.1487 13.3914C10.4187 13.3914 13.3914 11.0673 13.3914 7.00007C13.3914 6.6224 13.3319 6.21568 13.2427 5.83801Z" fill="white"/>
</mask>
<g mask="url(#mask1_20_456)">
<path d="M0.0142822 3.22336L5.06787 7.00004L7.14876 5.22791L14.2832 4.0949V0.02771H0.0142822V3.22336Z" fill="#EA4335"/>
</g>
<mask id="mask2_20_456" style="mask-type:luminance" maskUnits="userSpaceOnUse" x="0" y="0" width="14" height="14">
<path fill-rule="evenodd" clip-rule="evenodd" d="M13.2427 5.83801H7.1487V8.30738H10.6565C10.3295 9.87616 8.96205 10.7767 7.1487 10.7767C5.00836 10.7767 3.28419 9.09177 3.28419 7.00007C3.28419 4.90837 5.00836 3.22339 7.1487 3.22339C8.07024 3.22339 8.9026 3.54295 9.55659 4.06588L11.4591 2.20659C10.2998 1.21884 8.81342 0.608765 7.1487 0.608765C3.52201 0.608765 0.608765 3.4558 0.608765 7.00007C0.608765 10.5443 3.52201 13.3914 7.1487 13.3914C10.4187 13.3914 13.3914 11.0673 13.3914 7.00007C13.3914 6.6224 13.3319 6.21568 13.2427 5.83801Z" fill="white"/>
</mask>
<g mask="url(#mask2_20_456)">
<path d="M0.0142822 10.7767L8.93238 4.0949L11.2808 4.38542L14.2832 0.02771V13.9724H0.0142822V10.7767Z" fill="#34A853"/>
</g>
<mask id="mask3_20_456" style="mask-type:luminance" maskUnits="userSpaceOnUse" x="0" y="0" width="14" height="14">
<path fill-rule="evenodd" clip-rule="evenodd" d="M13.2427 5.83801H7.1487V8.30738H10.6565C10.3295 9.87616 8.96205 10.7767 7.1487 10.7767C5.00836 10.7767 3.28419 9.09177 3.28419 7.00007C3.28419 4.90837 5.00836 3.22339 7.1487 3.22339C8.07024 3.22339 8.9026 3.54295 9.55659 4.06588L11.4591 2.20659C10.2998 1.21884 8.81342 0.608765 7.1487 0.608765C3.52201 0.608765 0.608765 3.4558 0.608765 7.00007C0.608765 10.5443 3.52201 13.3914 7.1487 13.3914C10.4187 13.3914 13.3914 11.0673 13.3914 7.00007C13.3914 6.6224 13.3319 6.21568 13.2427 5.83801Z" fill="white"/>
</mask>
<g mask="url(#mask3_20_456)">
<path d="M14.2832 13.9724L5.06786 7.00007L3.87878 6.12853L14.2832 3.22339V13.9724Z" fill="#4285F4"/>
</g>
</svg>
